<svg xmlns="http://www.w3.org/2000/svg" aria-hidden="true" style="position:absolute;width:0;height:0;overflow:hidden"><defs><symbol id="icon-antenna" viewBox="0 0 32 32"><path fill="#212121" d="m30.773 22.098-8.443-8.505.937-4.616c.225.09.485.144.758.146h.033a2.16 2.16 0 1 0-2.029-1.42l-.005-.015-4.96.606L8.973.161a.53.53 0 0 0-.376-.16.536.536 0 0 0-.373.155L6.712 1.66a.535.535 0 0 0 0 .754l.814.825C6.383 5.301 5.71 7.761 5.71 10.378c0 4.106 1.656 7.824 4.336 10.525l-.001-.001a.49.49 0 0 0 .146.097 2.986 2.986 0 0 0-.052.546v6.188h-6.4a2.669 2.669 0 0 0-2.667 2.666v1.067c0 .295.239.534.534.534H26.14a.534.534 0 0 0 .533-.534v-1.067a2.67 2.67 0 0 0-2.666-2.666h-6.4v-2.742a14.784 14.784 0 0 0 10.166-1.502l-.077.039.818.823a.534.534 0 0 0 .376.16.536.536 0 0 0 .373-.155l1.512-1.504a.535.535 0 0 0 0-.754zM23.28 6.233a1.067 1.067 0 1 1 .752 1.822h-.004a1.066 1.066 0 0 1-.747-1.822h-.002zm-1.256 3.504-.598 2.946-1.175-1.183 1.774-1.763zm-.605-.902-1.92 1.909-1.486-1.493 3.406-.416zM24.004 28.8a1.6 1.6 0 0 1 1.6 1.6v.534H2.138V30.4a1.6 1.6 0 0 1 1.6-1.6h20.267zm-7.466-2.134v1.067h-5.334v-1.067h5.334zM11.204 25.6v-4.053c0-1.294 1.196-2.346 2.667-2.346s2.667 1.053 2.667 2.346V25.6h-5.334zm6.4-1.696v-2.357c0-1.882-1.675-3.413-3.733-3.413h-.058c-1.353 0-2.54.707-3.213 1.771l-.009.016a13.817 13.817 0 0 1-3.812-9.55c0-2.314.567-4.496 1.569-6.414l-.036.077 18.602 18.709c-1.823.947-3.979 1.502-6.266 1.502-1.079 0-2.128-.124-3.136-.357l.093.018zm11.289-.684L7.836 2.039l.754-.752 7.935 7.98c.004 0 .006.007.01.01l13.114 13.191-.757.752z" style="fill:var(--color1, #212121)"/><path fill="#2196f3" d="M13.876 20.267h-.007a1.6 1.6 0 0 0-.003 3.2h.007a1.6 1.6 0 0 0 .002-3.2zm.373 1.978a.534.534 0 1 1-.378-.912.533.533 0 0 1 .374.911h.005z" style="fill:var(--color2, #2196f3)"/></symbol><symbol id="icon-astronaut" viewBox="0 0 32 32"><path fill="#2196f3" d="M31.974 4.524a.535.535 0 0 0-.427-.362h-.003l-1.911-.278-.855-1.731c-.179-.365-.777-.365-.956 0l-.855 1.731-1.911.278a.534.534 0 0 0-.296.91l1.383 1.348-.326 1.903a.532.532 0 0 0 .774.562l1.709-.899 1.709.899a.534.534 0 0 0 .773-.565v.003l-.326-1.903 1.383-1.348a.535.535 0 0 0 .134-.55l.001.004zm-2.463 1.327a.53.53 0 0 0-.153.472l.191 1.114-1-.526a.525.525 0 0 0-.501.001l.003-.001-1 .526.191-1.114a.53.53 0 0 0-.152-.472l-.811-.79 1.119-.162a.532.532 0 0 0 .402-.292l.5-1.013.5 1.013a.532.532 0 0 0 .402.292l1.119.162-.809.79zm-3.377 14.671h-1.067v1.067h1.067v-1.067zm0 2.134h-1.067v1.066h1.067v-1.066zm1.066-1.067h-1.067v1.067H27.2v-1.067zm-2.133 0H24v1.067h1.067v-1.067zm-2.667 4.8h-1.067v1.067H22.4v-1.067zm0 2.134h-1.067v1.067H22.4v-1.067zm1.067-1.067H22.4v1.067h1.067v-1.067zm-2.133 0h-1.067v1.067h1.067v-1.067zM16 24.256h-1.066v1.067H16v-1.067zm0 2.133h-1.066v1.067H16v-1.067zm1.067-1.067H16v1.067h1.067v-1.067zm-2.133 0h-1.067v1.067h1.067v-1.067zm-9.067-19.2H4.801v1.066h1.066V6.122zm0 2.134H4.801v1.066h1.066V8.256zm1.066-1.067H5.866v1.067h1.066V7.189zm-2.133 0H3.733v1.067H4.8V7.189z" style="fill:var(--color2, #2196f3)"/><path fill="#212121" d="M24.715 14.16a1.774 1.774 0 0 0-1.179-.703l-.009-.001a1.769 1.769 0 0 0-1.344.355l.004-.003-1.253.96-1.898 1.417-1.358-.541c2.421-1.086 4.113-3.508 4.113-6.32 0-3.823-3.122-6.934-6.961-6.934S7.869 5.5 7.869 9.324c0 1.386.415 2.674 1.12 3.759l-2.768-.024c-.009 0-.016.005-.023.005a.511.511 0 0 0-.159.033l.004-.001c-.013.005-.026.007-.038.013-.006.003-.013.003-.019.006l-3.233 1.596-.001.001-1.893.91a.5.5 0 0 0-.065.036l.001-.001a1.782 1.782 0 0 0-.594 2.306l-.005-.01c.22.424.592.742 1.043.885l.013.003a1.772 1.772 0 0 0 1.388-.133l-.009.005 1.388-.738 2.264-1.169 1.357-.008-5.442 5.415-.001.001-1.339 1.333a1.643 1.643 0 0 0-.491 1.173v.005a1.668 1.668 0 0 0 1.667 1.664h.002a1.67 1.67 0 0 0 1.18-.485l1.314-1.309 1.741-1.3.901.897L4.07 27.28a1.643 1.643 0 0 0-.491 1.173v.004a1.662 1.662 0 0 0 1.666 1.664h.003a1.67 1.67 0 0 0 1.18-.485l4.488-4.472c.007-.006.016-.009.022-.016l5.166-5.658 3.471.494a.474.474 0 0 0 .262-.032c.017-.006.032-.015.049-.023.019-.01.039-.015.058-.027l3.213-2.133c.012-.008.018-.021.029-.03.013-.01.029-.014.041-.026l1.271-1.191c.348-.326.564-.787.564-1.3 0-.4-.132-.769-.355-1.066l.003.005zM2.13 17.77a.706.706 0 0 1-.564.05l.005.001a.717.717 0 0 1-.215-1.258l.002-.001 1.314-.632.316.924.133.389-.992.527zm3.497-1.828-1.548.8-.255-.746-.184-.537 2.027-1.001-.04 1.484zm15.1-6.62c0 .918-.219 1.785-.599 2.56l-4.181-1.899a1.865 1.865 0 0 0-.782-1.384l-.006-.004 1.464-4.861c2.377.757 4.104 2.975 4.104 5.588zm-11.789 0c0-3.235 2.644-5.867 5.894-5.867.253 0 .5.022.745.053l-1.432 4.753c-.019 0-.037-.006-.057-.006h-.001a1.872 1.872 0 0 0-1.872 1.867 1.873 1.873 0 0 0 1.872 1.867h.001c.695 0 1.295-.383 1.618-.944l3.863 1.755a5.891 5.891 0 0 1-4.737 2.39c-3.25 0-5.894-2.632-5.894-5.867zm5.957.8c0 .441-.362.8-.806.8h-.001a.804.804 0 0 1-.804-.8c0-.441.361-.8.806-.8s.806.359.806.8zM2.464 25.146a.606.606 0 0 1-.855.001.591.591 0 0 1 0-.844l.962-.959.852.848-.959.954zm3.214 3.734a.606.606 0 0 1-.855.001.591.591 0 0 1 0-.844l.963-.959.852.848-.96.955zm3.482-3.469-.001.001-1.765 1.76-.852-.848 1.765-1.757a.527.527 0 0 0 .09-.136c.007-.014.02-.026.026-.04.016-.041.019-.085.026-.128.003-.025.014-.048.014-.073 0-.035-.013-.07-.02-.105-.006-.032-.006-.064-.019-.096a.536.536 0 0 0-.092-.138c-.01-.012-.014-.026-.025-.038h-.001l-.001-.002-1.607-1.6c-.017-.017-.039-.024-.058-.038a.491.491 0 0 0-.084-.056l-.003-.001a.527.527 0 0 0-.09-.031l-.003-.001a.502.502 0 0 0-.101-.02h-.025a.603.603 0 0 0-.075.005h.003c-.036.005-.069.009-.104.021s-.064.027-.094.045c-.02.011-.043.015-.061.029l-1.774 1.324-.901-.897 2.399-2.386 4.36 4.289-.928.919zm6.819-7.017c-.016-.002-.03.004-.046.003l-.027-.001a.562.562 0 0 0-.092.008h.003a.484.484 0 0 0-.187.07l.002-.001a.492.492 0 0 0-.083.061c-.013.011-.028.016-.04.029l-4.698 5.146-4.328-4.256 2.833-2.818a.535.535 0 0 0-.378-.911h-.002l-2.219.013.028-1.607 3.104.027a6.928 6.928 0 0 0 4.978 2.101h.003c.438 0 .864-.046 1.28-.122.04.032.08.064.129.085l2.41.96.152.758.178.886-3.003-.427zm4.041.178-.313-1.558 1.446-1.08.946 1.257-2.08 1.381zm3.753-2.831-.837.785-.931-1.236.831-.637a.735.735 0 0 1 .543-.143.718.718 0 0 1 .621.71.71.71 0 0 1-.226.521z" style="fill:var(--color1, #212121)"/><path fill="#212121" d="m13.602 18.544-2.143-2.134a.53.53 0 0 0-.752 0l-2.143 2.133a.535.535 0 0 0 0 .756l2.142 2.134a.53.53 0 0 0 .752 0l2.143-2.134a.532.532 0 0 0 0-.756zm-2.519 1.759-1.387-1.381 1.386-1.381 1.387 1.381-1.387 1.381zm6.081-15.232-.258 1.036c.071.018 1.738.452 1.738 2.149h1.067c0-2.017-1.666-2.965-2.547-3.184zm2.547 4.251h-1.067v1.066h1.067V9.322z" style="fill:var(--color1, #212121)"/></symbol><symbol id="icon-clock" viewBox="0 0 32 32"><path fill="#212121" d="M31.296 15.301C31.295 6.849 24.441-.002 15.988 0S.685 6.855.687 15.308c.002 6.788 4.422 12.543 10.541 14.545l.108.031a.667.667 0 0 0 .529-.065.636.636 0 0 0 .283-.357l3.865-12.25a1.913 1.913 0 1 0-.852-3.63l.011-.005-5.106-5.107a.638.638 0 0 0-.902.902l5.103 5.109a1.847 1.847 0 0 0-.191.826c0 .602.283 1.137.723 1.48l.004.003-3.682 11.673C3.843 25.782.117 17.709 2.797 10.431S13.551-.573 20.829 2.108c7.278 2.681 11.004 10.754 8.323 18.032-1.345 3.581-4.003 6.406-7.374 7.938l-.088.036-.398-1.874a.639.639 0 0 0-1.05-.343l.001-.001-3.837 3.426a.637.637 0 0 0 .227 1.083l.005.001 4.899 1.563a.637.637 0 0 0 .818-.744l.001.004-.391-1.839c5.528-2.374 9.329-7.772 9.329-14.057v-.034.002zm-15.304-.637a.638.638 0 0 1 0 1.276.638.638 0 0 1 0-1.276zm2.1 14.864 2.184-1.948.603 2.84-2.787-.892z" style="fill:var(--color1, #212121)"/><path fill="#2196f3" d="M15.354 3.185V4.46a.638.638 0 0 0 1.276 0V3.185a.638.638 0 1 0-1.276 0zM3.876 14.664a.638.638 0 0 0 0 1.276h1.275a.638.638 0 0 0 0-1.276H3.876zm24.232 1.275a.638.638 0 0 0 0-1.276h-1.275a.638.638 0 0 0 0 1.276h1.275z" style="fill:var(--color2, #2196f3)"/></symbol><symbol id="icon-diagram" viewBox="0 0 32 32"><path fill="#2196f3" d="M14.926 14.965h1.066v4.798h-1.066v-4.798zm4.264 2.132h1.066v2.665H19.19v-2.665zm-8.529 1.599h1.066v1.066h-1.066v-1.066zm-3.198-.533h1.066v1.599H7.463v-1.599z" style="fill:var(--color2, #2196f3)"/><path fill="#212121" d="M1.599 28.291h25.586a1.6 1.6 0 0 0 1.599-1.599V24.56a1.6 1.6 0 0 0-1.599-1.599h-.533V9.667l3.028-2.868a1.608 1.608 0 1 0-.742-.752l-.004-.01-2.281 2.162v-1.23a1.6 1.6 0 0 0-1.599-1.599H3.731a1.6 1.6 0 0 0-1.599 1.599v15.992h-.533A1.6 1.6 0 0 0 0 24.56v2.132a1.6 1.6 0 0 0 1.599 1.599zM30.384 4.837a.533.533 0 0 1 0 1.066.533.533 0 0 1 0-1.066zM3.198 6.969c0-.294.239-.533.533-.533h21.323c.294 0 .533.239.533.533v2.239l-1.066 1.013V8.036a.534.534 0 0 0-.534-.534H4.798a.534.534 0 0 0-.534.533v13.327c0 .294.239.533.534.533h19.189a.534.534 0 0 0 .534-.533v-9.675l1.066-1.01V22.96H3.198V6.969zm4.798 6.93h-.005a1.6 1.6 0 1 0 1.112 2.748l1.853.93a.535.535 0 0 0 .636-.122l3.939-4.432 3.872 2.902a.534.534 0 0 0 .686-.039l3.365-3.188v8.131H5.331V8.568h18.123v2.661l-3.771 3.572-3.904-2.927a.534.534 0 0 0-.718.071v.001l-3.993 4.493-1.493-.746c.011-.064.017-.128.02-.193a1.6 1.6 0 0 0-1.599-1.599zm.533 1.599a.533.533 0 0 1-1.066 0 .533.533 0 0 1 1.066 0zm3.198 8.528h5.33v.533a.533.533 0 0 1-.533.533h-4.265a.533.533 0 0 1-.533-.533v-.533zm-10.66.534c0-.294.238-.533.533-.533h9.062v.533a1.6 1.6 0 0 0 1.599 1.599h4.265a1.6 1.6 0 0 0 1.599-1.599v-.533h9.062c.294 0 .533.239.533.533v2.132a.533.533 0 0 1-.533.533H1.601a.533.533 0 0 1-.533-.533V24.56z" style="fill:var(--color1, #212121)"/></symbol><symbol id="icon-envelope" viewBox="0 0 43 32"><path  d="M38.667 0H4C1.795 0 0 1.795 0 4v24c0 2.205 1.795 4 4 4h34.667c2.205 0 4-1.795 4-4V4c0-2.205-1.795-4-4-4zm0 2.667c.181 0 .355.037.512.104L21.334 18.238 3.489 2.771c.151-.065.327-.104.512-.104h34.667zm0 26.666H4A1.333 1.333 0 0 1 2.667 28V5.587l17.792 15.421c.233.203.539.327.875.327s.642-.124.876-.328l-.002.001L40 5.587V28c0 .736-.597 1.333-1.333 1.333z" /></symbol><symbol id="icon-facebook" viewBox="0 0 32 32"><path d="M21.328 5.312h2.923V.224A36.483 36.483 0 0 0 20.143 0h-.156.008c-4.213 0-7.099 2.65-7.099 7.52V12H8.25v5.688h4.646V32h5.699V17.69h4.459l.707-5.688h-5.168V8.08c0-1.643.443-2.768 2.734-2.768z" /></symbol><symbol id="icon-instagram" viewBox="0 0 32 32"><path  d="M31.968 9.408c-.074-1.701-.349-2.869-.742-3.882a7.839 7.839 0 0 0-1.85-2.837l-.001-.001A7.906 7.906 0 0 0 26.597.861l-.054-.018C25.524.449 24.362.176 22.661.101 20.949.019 20.405 0 16.059 0c-4.344 0-4.888.019-6.595.094-1.699.074-2.869.349-3.88.742a7.847 7.847 0 0 0-2.839 1.85l-.001.001A7.9 7.9 0 0 0 .919 5.465l-.018.054C.506 6.538.232 7.7.157 9.401c-.082 1.712-.101 2.256-.101 6.602 0 4.344.019 4.888.094 6.595.075 1.701.35 2.869.744 3.882a7.915 7.915 0 0 0 1.849 2.837l.001.001c.8.813 1.77 1.443 2.832 1.843 1.019.395 2.182.67 3.882.744 1.707.075 2.251.094 6.595.094 4.346 0 4.89-.019 6.595-.094 1.701-.074 2.869-.349 3.882-.742a8.237 8.237 0 0 0 4.664-4.628l.019-.055c.394-1.019.669-2.182.744-3.882.075-1.707.093-2.251.093-6.595s-.006-4.888-.08-6.595zm-2.88 13.066c-.07 1.563-.333 2.406-.55 2.97a5.341 5.341 0 0 1-3.004 3.024l-.036.012c-.56.219-1.411.482-2.968.55-1.688.075-2.194.094-6.464.094-4.269 0-4.782-.019-6.464-.094-1.563-.069-2.406-.331-2.97-.55a4.953 4.953 0 0 1-1.836-1.192l-.001-.001a4.978 4.978 0 0 1-1.184-1.803L3.6 25.45c-.218-.563-.48-1.413-.549-2.97-.075-1.688-.094-2.195-.094-6.464 0-4.27.019-4.784.094-6.464.069-1.563.331-2.406.549-2.97a4.897 4.897 0 0 1 1.198-1.837l.002-.002a4.972 4.972 0 0 1 1.806-1.182l.034-.011c.56-.219 1.411-.48 2.968-.55 1.688-.074 2.195-.093 6.464-.093 4.275 0 4.782.019 6.464.093 1.563.069 2.406.331 2.97.55a4.91 4.91 0 0 1 1.837 1.194c.531.52.938 1.144 1.195 1.84.218.56.48 1.411.549 2.968.075 1.688.094 2.194.094 6.464 0 4.269-.019 4.768-.094 6.458z" /><path  d="M16.059 7.782a8.223 8.223 0 0 0-8.219 8.221 8.223 8.223 0 0 0 16.442.008v-.009a8.223 8.223 0 0 0-8.221-8.221zm0 13.552a5.333 5.333 0 0 1 .001-10.666h.001a5.334 5.334 0 1 1 0 10.668zM26.525 7.458a1.92 1.92 0 0 1-3.84 0 1.92 1.92 0 0 1 3.84 0z" /></symbol><symbol id="icon-linkedin" viewBox="0 0 32 32"><path  d="M31.992 32H32V20.262c0-5.741-1.237-10.163-7.947-10.163-3.227 0-5.392 1.77-6.277 3.45h-.093v-2.914h-6.365v21.363h6.627V21.42c0-2.786.528-5.48 3.978-5.48 3.398 0 3.448 3.179 3.448 5.658V32h6.621zM.528 10.635h6.635V32H.528V10.635zM3.843 0A3.843 3.843 0 0 0 0 3.843c0 2.12 1.722 3.878 3.843 3.878 2.12 0 3.842-1.757 3.842-3.878S5.965.002 3.844 0z" /></symbol><symbol id="icon-logo1" viewBox="0 0 57 32"><path  d="m20.267 3.733 3.738 3.538-6.938-.004v17.167H35.2V17.87l3.733 3.534V3.733H20.266zm14.769 13.722L24.439 7.423h10.597v10.032zm-3.29 4.468h-11.81V10.378h.835v10.763h10.975v.781zm-9.021 4.797-.436.899-.436-.899h-.366l.637 1.198v.698h.331v-.698l.635-1.198h-.364zm.549 1.896.154-.442h.734l.155.442h.344l-.717-1.896h-.296l-.716 1.896h.342zm.52-1.493.275.786h-.549l.275-.787zm1.737.74a.425.425 0 0 0-.071.238v.003c0 .16.056.29.168.389s.263.149.45.149a.784.784 0 0 0 .485-.153l.107.126h.367l-.278-.33a.95.95 0 0 0 .164-.574h-.275a.768.768 0 0 1-.079.348l-.366-.432.129-.094a.724.724 0 0 0 .195-.195l.002-.003a.41.41 0 0 0 .06-.216v-.01a.39.39 0 0 0-.132-.293.477.477 0 0 0-.32-.123h-.02.001c-.153 0-.274.044-.364.13s-.135.203-.135.352c0 .061.014.123.043.189.03.065.082.144.155.237a1.13 1.13 0 0 0-.282.261zm.856.42a.478.478 0 0 1-.299.107h-.015a.31.31 0 0 1-.212-.083.286.286 0 0 1-.085-.203v-.011.001c0-.101.052-.192.156-.271l.041-.029.414.489zm-.34-.84c-.09-.11-.134-.202-.134-.275 0-.063.019-.116.055-.157a.184.184 0 0 1 .139-.063h.015c.052 0 .1.02.135.054a.168.168 0 0 1 .056.126v.007a.234.234 0 0 1-.08.177l-.041.032-.145.099zm3.086 1.03a.689.689 0 0 0 .224-.474h-.328c-.018.135-.059.232-.124.29s-.163.087-.292.087c-.141 0-.249-.054-.323-.162s-.11-.264-.11-.469v-.167c.002-.203.041-.355.117-.46a.386.386 0 0 1 .331-.157c.123 0 .217.03.28.091s.104.158.12.294h.328c-.021-.207-.095-.368-.222-.482s-.296-.171-.506-.171a.717.717 0 0 0-.681.421l-.002.005c-.06.133-.096.288-.096.451v.023-.001.177c.003.174.035.327.098.46s.151.234.266.306a.75.75 0 0 0 .4.107c.216 0 .389-.056.519-.169zm1.936-.266c.064-.141.097-.304.097-.49v-.125c0-.169-.036-.329-.102-.473l.003.007a.728.728 0 0 0-.274-.318l-.003-.002c-.119-.075-.256-.112-.411-.112s-.291.037-.411.113a.738.738 0 0 0-.277.324 1.135 1.135 0 0 0-.098.466v.025-.001.107c.001.181.034.341.099.48a.752.752 0 0 0 .279.322.764.764 0 0 0 .411.112.755.755 0 0 0 .412-.112.737.737 0 0 0 .276-.323zm-.353-1.072c.08.112.119.274.119.484v.099c0 .213-.039.376-.118.487a.386.386 0 0 1-.336.167h-.014a.393.393 0 0 1-.324-.17l-.001-.001c-.081-.114-.121-.275-.121-.483v-.109c.002-.204.043-.362.122-.473a.39.39 0 0 1 .321-.168h.014-.001a.39.39 0 0 1 .338.168z" /></symbol><symbol id="icon-logo2" viewBox="0 0 57 32"><path  d="M26.727 3.165h-.073a7.542 7.542 0 0 0-.336-.012h-.243c-.212 0-.428.005-.642.016l-.024-.001-.025.001h.001c-2.059.12-3.971.635-5.699 1.47l.09-.039-.23.111V16.52l.54-.183a20.64 20.64 0 0 1 1.5-.445 17.815 17.815 0 0 1 4.305-.573h.012v1.551c-.193.001-.38.006-.568.016h-.045c-1.212.068-2.348.25-3.442.537l.12-.027c-1.503.382-2.82.91-4.044 1.586l.087-.044V3.793a15.49 15.49 0 0 1 4.042-1.665l.11-.024a15.544 15.544 0 0 1 3.909-.505h.231c.273.007.539.019.788.038.658.046 1.31.15 1.949.311v1.527a11.487 11.487 0 0 0-1.849-.282l-.039-.002-.039-.003c-.132-.011-.263-.022-.386-.022zm2.688 1.561c.339.026.69.038 1.044.038a16.84 16.84 0 0 0 4.231-.554l-.117.026a16.9 16.9 0 0 0 4.043-1.587l-.087.044v14.875a15.559 15.559 0 0 1-4.042 1.665l-.11.024c-1.173.314-2.52.498-3.91.503h-.1c-1.02 0-2.01-.128-2.955-.368l.083.018V4.438c.229.053.466.102.706.142.394.067.81.115 1.214.145zm7.57.116-.54.181c-.496.167-.997.316-1.5.449-1.344.36-2.888.569-4.48.575h-.004c-.352 0-.676-.01-.989-.03l-.43-.028v12.148l.37.032c.342.03.696.045 1.052.045a14.371 14.371 0 0 0 3.631-.48l-.1.023a14.671 14.671 0 0 0 2.848-1.031l-.088.039.23-.111V4.842zM19.06 24.113a.794.794 0 0 0-.572-.243l-.03.001h.001-.012a.888.888 0 0 0-.34.067l.006-.002a.785.785 0 0 0-.442.444l-.002.005a.874.874 0 0 0-.062.335v2.023a.957.957 0 0 0 .079.415.808.808 0 0 0 .203.271.714.714 0 0 0 .277.144c.099.027.201.042.302.042a.854.854 0 0 0 .838-.851v-.226h-.53v.192c0 .06-.011.118-.032.171l.001-.003a.315.315 0 0 1-.077.114.367.367 0 0 1-.221.077.265.265 0 0 1-.247-.108l-.001-.001a.478.478 0 0 1-.071-.251v-.021.001-1.887a.643.643 0 0 1 .065-.302.27.27 0 0 1 .227-.124l.033.002h-.001.01c.092 0 .174.045.226.114l.001.001a.425.425 0 0 1 .088.26v.012-.001.175h.524v-.215a.958.958 0 0 0-.067-.352l.002.006a.838.838 0 0 0-.177-.285zm3.142-.022a.92.92 0 0 0-.917-.166.838.838 0 0 0-.483.443l-.002.005a.94.94 0 0 0-.077.392v1.94a.932.932 0 0 0 .077.397.77.77 0 0 0 .205.271.837.837 0 0 0 .279.171.914.914 0 0 0 .919-.172l-.001.001a.831.831 0 0 0 .199-.271.934.934 0 0 0 .077-.397v-1.958a.952.952 0 0 0-.08-.381l.002.006a.876.876 0 0 0-.199-.283zm-.247 2.615.001.03a.349.349 0 0 1-.106.251.388.388 0 0 1-.499 0h.001a.344.344 0 0 1-.106-.25c0-.011 0-.022.002-.032v.001-1.941l-.001-.03c0-.098.041-.187.106-.25a.388.388 0 0 1 .499 0h-.001a.344.344 0 0 1 .106.25l-.001.032v-.001 1.941zm4.374.867v-3.675h-.508l-.668 1.945h-.009l-.674-1.945h-.503v3.674h.525v-2.235h.01l.514 1.58h.262l.518-1.58h.01v2.235h.525zm2.982-3.416a.727.727 0 0 0-.297-.201 1.153 1.153 0 0 0-.361-.057h-.8v3.675h.524v-1.435h.269a.968.968 0 0 0 .473-.1.779.779 0 0 0 .286-.278l.002-.003a.893.893 0 0 0 .12-.32 2.56 2.56 0 0 0 .028-.385v-.035.002a2.107 2.107 0 0 0-.051-.525.789.789 0 0 0-.193-.338zm-.27 1.12a.45.45 0 0 1-.05.194l.001-.003a.3.3 0 0 1-.133.128l-.002.001a.525.525 0 0 1-.22.047l-.028-.001h.001-.239v-1.249h.27l.025-.001c.077 0 .149.017.214.048l-.003-.001a.299.299 0 0 1 .122.134l.001.002a.537.537 0 0 1 .046.205v.244c0 .085.005.174 0 .252h-.005zm2.75-1.378h-.429l-.81 3.675h.524l.154-.789h.714l.154.789h.523l-.829-3.675zm-.483 2.384.258-1.332h.01l.256 1.332h-.523zm3.865-.171h-.01l-.79-2.213h-.503v3.675h.523v-2.21h.011l.8 2.209h.493v-3.674h-.523v2.213zm3.199-2.213-.421 1.461h-.011l-.421-1.461h-.554l.719 2.122v1.553h.524v-1.553l.719-2.121h-.555zM17.6 28.611h.252v.708h.171v-.708h.251v-.145H17.6v.146zm2.121-.146-.331.853h.182l.07-.194h.34l.073.194h.187l-.339-.853h-.182zm-.027.516.116-.316.116.316h-.232zm2.124.023h.197v.11a.326.326 0 0 1-.203.072H21.8a.218.218 0 0 1-.169-.081.352.352 0 0 1-.063-.203l.001-.02v.001c0-.19.082-.285.245-.285l.018-.001a.18.18 0 0 1 .174.136v.001l.169-.033c-.036-.166-.156-.251-.362-.251h-.011a.43.43 0 0 0-.287.11.415.415 0 0 0-.123.329v-.001.02c0 .115.041.22.11.301l-.001-.001a.411.411 0 0 0 .297.126l.027-.001h-.001.014a.51.51 0 0 0 .348-.137v-.336h-.37v.144zm2.141-.539h-.173v.853h.597v-.145h-.425v-.708zm1.811 0h-.173v.853h.173v-.853zm1.769.57-.349-.57h-.167v.853h.16v-.557l.343.557h.172v-.853h-.158v.57zm1.601-.093h.425v-.145h-.425v-.187h.457v-.146h-.63v.853h.647v-.145h-.475v-.231zm3.88-.14h-.336v-.336h-.171v.853h.171v-.373h.336v.373h.172v-.853h-.172v.337zm1.609.14h.427v-.145h-.427v-.187h.459v-.146h-.629v.853h.646v-.145h-.475v-.231zm2.183.001c.149-.023.224-.102.224-.237l.001-.024a.205.205 0 0 0-.085-.166h-.001a.478.478 0 0 0-.216-.051l-.035.001h.002-.362v.853h.172v-.357h.048c.034 0 .066.007.094.02l-.001-.001a.181.181 0 0 1 .061.062l.186.271h.205l-.104-.166a.598.598 0 0 0-.187-.203l-.002-.001zm-.173-.118h-.126v-.214h.135l.036-.001c.049 0 .097.008.141.023l-.003-.001c.023.021.037.05.037.083a.114.114 0 0 1-.045.09.464.464 0 0 1-.142.021l-.033-.001h.002zm1.82.117h.425v-.145h-.425v-.187h.459v-.146h-.631v.853h.647v-.145h-.475v-.231z" /></symbol><symbol id="icon-logo3" viewBox="0 0 57 32"><path  d="M19.417 26.187a.07.07 0 0 1 .046.018l.116.111a.964.964 0 0 1-.327.211 1.254 1.254 0 0 1-.434.076h-.032.002a1.213 1.213 0 0 1-.436-.071.958.958 0 0 1-.33-.2l.001.001a.908.908 0 0 1-.21-.302l-.002-.006a1.016 1.016 0 0 1-.075-.385v-.012.001-.02c0-.272.118-.516.305-.684l.001-.001a1.06 1.06 0 0 1 .349-.201c.143-.048.296-.072.45-.07h.028c.139 0 .273.024.398.067l-.009-.003c.115.044.221.104.313.179l-.098.118a.12.12 0 0 1-.024.021.064.064 0 0 1-.034.009h-.006a.102.102 0 0 1-.043-.012L19.314 25l-.073-.041a.823.823 0 0 0-.225-.07l-.005-.001a1 1 0 0 0-.161-.013h-.013.001-.011a.963.963 0 0 0-.319.055l.007-.002a.734.734 0 0 0-.254.15l.001-.001a.67.67 0 0 0-.164.237.774.774 0 0 0-.059.302v.011-.001.013c0 .11.022.215.061.311l-.002-.005a.707.707 0 0 0 .162.236.662.662 0 0 0 .242.147.886.886 0 0 0 .299.051c.059.001.119-.003.178-.01a.696.696 0 0 0 .385-.164l-.001.001a.088.088 0 0 1 .055-.02zm3.358-.558v.012a.958.958 0 0 1-.081.387l.002-.006a.864.864 0 0 1-.218.304l-.001.001a1.01 1.01 0 0 1-.337.198l-.007.002a1.409 1.409 0 0 1-.894-.003l.01.003a1.016 1.016 0 0 1-.342-.202l.001.001a.893.893 0 0 1-.219-.303l-.002-.006a1.024 1.024 0 0 1 .003-.793l-.003.007a.925.925 0 0 1 .221-.309c.097-.085.213-.15.341-.194a1.383 1.383 0 0 1 .894.003l-.01-.003c.129.045.246.114.343.201a.903.903 0 0 1 .298.701zm-.305 0v-.017a.812.812 0 0 0-.058-.305l.002.006a.656.656 0 0 0-.396-.384l-.005-.001a1.027 1.027 0 0 0-.65.002l.007-.002a.682.682 0 0 0-.246.15.626.626 0 0 0-.156.232l-.001.004a.91.91 0 0 0 .003.638l-.002-.006a.652.652 0 0 0 .399.383l.005.001c.207.068.435.068.643 0a.685.685 0 0 0 .245-.148.662.662 0 0 0 .156-.236.817.817 0 0 0 .055-.316zm2.597.331.031.07c.011-.025.021-.048.033-.07a.937.937 0 0 1 .039-.072l-.002.003.743-1.174c.015-.02.028-.033.043-.037s.033-.007.051-.007h.23v1.909h-.26v-1.463l-.001-.033.001-.035v.002l-.748 1.19a.111.111 0 0 1-.043.043h-.001a.13.13 0 0 1-.063.016H25.075a.134.134 0 0 1-.063-.016h.001a.111.111 0 0 1-.043-.043v-.001l-.77-1.198v1.532h-.251v-1.905h.229c.018 0 .036.002.052.007h-.001a.087.087 0 0 1 .041.037l.759 1.175c.014.02.026.042.037.066l.001.003zm2.796-.095v.715h-.29v-1.906h.649c.123-.002.244.012.362.042a.724.724 0 0 1 .256.119.499.499 0 0 1 .144.184l.001.003a.577.577 0 0 1 .05.244v.012a.53.53 0 0 1-.209.422l-.001.001a.757.757 0 0 1-.258.126 1.208 1.208 0 0 1-.327.044h-.024l-.351-.005zm0-.205h.352a.82.82 0 0 0 .226-.029.488.488 0 0 0 .164-.083l-.001.001a.365.365 0 0 0 .133-.282v-.005l.001-.021a.33.33 0 0 0-.03-.137l.001.002a.371.371 0 0 0-.101-.13l-.001-.001a.621.621 0 0 0-.345-.104l-.048.002h.002-.352v.786zm3.909.922h-.233a.111.111 0 0 1-.06-.018.116.116 0 0 1-.038-.044v-.001l-.197-.461h-.994l-.205.461a.11.11 0 0 1-.099.062h-.233l.873-1.909h.302l.884 1.909zm-1.44-.708h.82l-.346-.777a1.33 1.33 0 0 1-.066-.179l-.034.1a.652.652 0 0 1-.032.081l-.343.775zm2.697-1.191a.12.12 0 0 1 .043.034l1.273 1.439v-1.482h.26v1.909h-.148a.135.135 0 0 1-.057-.012h.001a.165.165 0 0 1-.047-.035l-1.27-1.438.001.033-.001.034v-.002 1.419h-.26v-1.909h.154a.15.15 0 0 1 .052.009zm3.719 1.14v.758h-.291v-.757l-.804-1.15h.266c.021 0 .04.006.056.016a.175.175 0 0 1 .039.043l.503.742a1.118 1.118 0 0 1 .089.17l.037-.082a.63.63 0 0 1 .05-.087l.496-.747a.202.202 0 0 1 .037-.04.095.095 0 0 1 .057-.019h.269l-.805 1.155zM24.923 21.47c.126.014.254.025.384.035 1.962-.763 3.622-2.011 4.772-3.588s1.739-3.415 1.694-5.282l-2.162-1.878c.439 1.988.234 4.043-.594 5.935s-2.245 3.547-4.094 4.779z" /><path  d="m24.151 21.382.058.011c1.975-1.228 3.481-2.942 4.323-4.922s.981-4.133.4-6.181l-3.08-2.676c1.245 2.199 1.747 4.661 1.445 7.099-.301 2.437-1.392 4.75-3.147 6.669zm10.445-6.541c-.523 2.052-1.794 3.902-3.623 5.276-.5.38-1.064.737-1.658 1.043l-.065.03c1.49-.38 2.859-1.053 4.003-1.966s2.03-2.042 2.592-3.3l-1.249-1.084z" /><path  d="m34.106 14.539-1.778-1.545c-.034 1.762-.611 3.483-1.669 4.986s-2.562 2.732-4.352 3.559h.009c.399 0 .797-.021 1.194-.062 1.673-.594 3.151-1.538 4.302-2.748s1.94-2.65 2.295-4.189zm-9.697-8.054L22.287 4.64c-1.897.637-3.527 1.756-4.68 3.212s-1.772 3.179-1.778 4.946c.007 1.952.763 3.846 2.149 5.383 1.385 1.536 3.321 2.628 5.501 3.101 1.946-2.06 3.085-4.605 3.252-7.266s-.647-5.299-2.323-7.531zm14.599 7.769c-.007-2.316-1.07-4.535-2.955-6.173s-4.439-2.561-7.105-2.567h-.021a11.28 11.28 0 0 0-3.66.606l.079-.024 12.989 11.286a7.537 7.537 0 0 0 .672-3.128z" /></symbol><symbol id="icon-logo4" viewBox="0 0 57 32"><path  d="M12.878 11.255h-.002c-1.279 0-2.316.921-2.316 2.058v.002c0 1.137 1.037 2.058 2.316 2.058h.002c1.279 0 2.316-.922 2.316-2.058v-.001c0-1.137-1.037-2.059-2.316-2.059zm17.093-.658c-.004-1.579-.711-3.092-1.967-4.209s-2.958-1.745-4.734-1.749c-1.777.003-3.481.631-4.737 1.748s-1.964 2.63-1.968 4.209v8.706s13.405-1.327 13.406-8.704v-.002zM5.867 22.16c.003 1.099.496 2.151 1.37 2.928s2.058 1.214 3.294 1.218c1.236-.003 2.42-.441 3.294-1.218s1.366-1.829 1.37-2.927v-6.058s-9.327.924-9.327 6.057zm4.663 1.085c-.242 0-.477-.063-.678-.183a1.136 1.136 0 0 1-.447-.48l-.003-.007a.951.951 0 0 1-.068-.634l-.001.007c.047-.211.163-.404.334-.556s.388-.255.625-.297a1.363 1.363 0 0 1 .715.064l-.009-.003c.223.082.414.221.548.4s.206.388.206.603a.963.963 0 0 1-.092.417 1.095 1.095 0 0 1-.263.352l-.001.001a1.323 1.323 0 0 1-.864.319h-.001v-.004zm9.426-.598h-.9v.93h-.469v-2.276h1.482v.38h-1.013v.588h.9v.378zm2.253-.156c0 .224-.039.42-.118.589a.893.893 0 0 1-.83.529h-.018.001a.943.943 0 0 1-.505-.136.917.917 0 0 1-.341-.382l-.002-.006a1.319 1.319 0 0 1-.123-.561v-.021.001-.112c0-.224.04-.421.12-.591a.895.895 0 0 1 .342-.392c.148-.092.316-.138.506-.138s.357.046.505.138a.888.888 0 0 1 .342.392c.081.17.122.366.122.589v.101zm-.475-.103c0-.238-.043-.42-.128-.544a.417.417 0 0 0-.348-.186h-.019.001-.018a.419.419 0 0 0-.346.183l-.001.001c-.085.122-.129.301-.13.538v.111c0 .232.043.412.128.54s.208.192.369.192h.018a.413.413 0 0 0 .343-.183l.001-.001c.084-.124.127-.304.128-.541v-.111zm1.995.592v-.013a.24.24 0 0 0-.093-.189h-.001a1.185 1.185 0 0 0-.338-.15c-.15-.047-.278-.1-.399-.163l.014.006c-.259-.14-.388-.328-.388-.564 0-.123.034-.233.103-.328a.691.691 0 0 1 .299-.227 1.13 1.13 0 0 1 .437-.081c.163 0 .307.029.435.089a.677.677 0 0 1 .295.249.646.646 0 0 1 .107.365h-.469c0-.104-.032-.185-.098-.242a.4.4 0 0 0-.276-.087.426.426 0 0 0-.267.074.228.228 0 0 0-.096.185v.006c0 .074.037.136.111.186.075.05.185.097.33.14.267.08.461.18.583.299s.183.267.183.444c0 .197-.075.352-.224.464s-.349.167-.601.167c-.175 0-.334-.032-.478-.096a.77.77 0 0 1-.328-.261l-.002-.002a.672.672 0 0 1-.112-.373v-.015.001h.47c0 .251.15.377.45.377a.442.442 0 0 0 .261-.067.223.223 0 0 0 .093-.182v-.009zm2.502-1.298h-.697v1.895h-.469v-1.895h-.686v-.38h1.853v.38zm1.637.909h-.9v.61h1.056v.377h-1.525v-2.276h1.522v.38h-1.053v.542h.9v.367zm1.274.153h-.373v.833H28.3v-2.276h.845c.269 0 .476.06.622.18s.219.289.219.508a.705.705 0 0 1-.101.389.69.69 0 0 1-.3.245l-.005.002.492.93v.021h-.503l-.427-.832zm-.373-.38h.379a.387.387 0 0 0 .273-.089.323.323 0 0 0 .097-.231v-.018.001c0-.108-.03-.192-.092-.253s-.154-.092-.28-.092h-.377v.683zm2.84.411v.802h-.469v-2.276h.887c.171 0 .321.031.45.094.13.062.23.151.3.267a.746.746 0 0 1 .105.392.657.657 0 0 1-.229.528c-.153.128-.363.193-.633.193h-.411zm0-.379h.419c.124 0 .219-.029.283-.087a.317.317 0 0 0 .099-.25v-.017a.372.372 0 0 0-.099-.254.37.37 0 0 0-.272-.106h-.43v.715zm2.965.195h-.9v.61h1.056v.377h-1.525v-2.276h1.522v.38h-1.053v.542h.9v.367zm2.176-.909h-.697v1.895h-.469v-1.895h-.687v-.38h1.853v.38zm1.637.909h-.899v.61h1.056v.377h-1.525v-2.276h1.522v.38h-1.053v.542h.9v.367zm1.274.153h-.373v.833h-.469v-2.276h.846c.269 0 .476.06.622.18s.219.289.219.508a.705.705 0 0 1-.101.389.687.687 0 0 1-.301.245l-.005.002.492.93v.021h-.503l-.427-.832zm-.374-.38h.378c.117 0 .209-.029.273-.089a.324.324 0 0 0 .097-.232v-.018.001a.338.338 0 0 0-.092-.253c-.06-.061-.154-.092-.279-.092h-.377v.683zm2.755.616v-.013a.237.237 0 0 0-.094-.189h-.001a1.185 1.185 0 0 0-.338-.15c-.15-.047-.278-.1-.399-.163l.014.006c-.259-.14-.388-.328-.388-.564 0-.123.035-.233.103-.328a.691.691 0 0 1 .299-.227 1.13 1.13 0 0 1 .437-.081c.163 0 .307.029.435.089a.677.677 0 0 1 .295.249.646.646 0 0 1 .107.365h-.469c0-.104-.032-.185-.098-.242a.4.4 0 0 0-.276-.087.426.426 0 0 0-.267.074.229.229 0 0 0-.096.186v.005c0 .074.037.136.111.186s.185.097.33.14c.267.08.461.18.583.299s.183.267.183.444c0 .197-.075.352-.224.464s-.349.167-.601.167c-.175 0-.334-.032-.478-.096a.77.77 0 0 1-.328-.261l-.002-.002a.672.672 0 0 1-.112-.373v-.015.001h.47c0 .251.15.377.45.377a.442.442 0 0 0 .261-.067.224.224 0 0 0 .094-.182v-.009z" /></symbol><symbol id="icon-logo5" viewBox="0 0 57 32"><path  d="M14.27 23.859a.768.768 0 0 1 .197.56.756.756 0 0 1-.073.326l.002-.005a.83.83 0 0 1-.232.296l-.002.001a1.39 1.39 0 0 1-.885.24h.004-1.549v-3.301h1.517a1.377 1.377 0 0 1 .846.222l-.005-.003a.782.782 0 0 1 .227.277.71.71 0 0 1 .068.341.722.722 0 0 1-.176.505.842.842 0 0 1-.462.258.893.893 0 0 1 .523.283zm-1.816-.498h.649a.655.655 0 0 0 .412-.11.386.386 0 0 0 .109-.144l.001-.003a.358.358 0 0 0 .03-.145l-.001-.033v.001l.001-.028a.376.376 0 0 0-.031-.15l.001.002a.399.399 0 0 0-.108-.147h-.001a.665.665 0 0 0-.373-.113l-.054.002h.002-.638v.867zm1.124 1.266a.407.407 0 0 0 .118-.149l.001-.003a.37.37 0 0 0 .034-.158l-.001-.027v.001l.001-.024a.38.38 0 0 0-.037-.165l.001.002a.41.41 0 0 0-.121-.151l-.001-.001a.705.705 0 0 0-.397-.121l-.045.001h.002-.68v.908h.689a.727.727 0 0 0 .435-.115zm3.793.651-.843-1.291h-.317v1.291h-.726v-3.302h1.374a1.433 1.433 0 0 1 .96.284l-.004-.003a1.016 1.016 0 0 1 .329.735.99.99 0 0 1-.228.633l.001-.002a1.152 1.152 0 0 1-.649.335l-.006.001.899 1.319h-.789zm-1.161-1.74h.594c.412 0 .619-.166.619-.5l.001-.027a.464.464 0 0 0-.035-.176l.001.003a.494.494 0 0 0-.118-.171.68.68 0 0 0-.47-.133h.003-.601l.007 1.005zm5.129 1.075h-1.446l-.255.665h-.761l1.328-3.265h.823l1.323 3.265h-.761l-.25-.665zm-.194-.499-.529-1.394-.529 1.394h1.057zm5.16 1.164h-.72l-1.616-2.245v2.245h-.719v-3.302h.719l1.616 2.259v-2.259h.72v3.302zm4.113-.79a1.501 1.501 0 0 1-.652.582c-.28.132-.608.209-.955.209l-.062-.001h.003-1.282v-3.302h1.283l.06-.001c.345 0 .673.075.968.209l-.015-.006c.276.128.503.329.652.576a1.78 1.78 0 0 1 0 1.733zm-.825-.079c.196-.205.317-.482.318-.788 0-.289-.113-.569-.318-.788a1.317 1.317 0 0 0-.906-.281h.004-.5v2.138h.5a1.323 1.323 0 0 0 .905-.282l-.003.002zm-7.803-20.8s9.3 3.215 9.103 7.867v7.869s-9.294-3.216-9.1-7.869l-.003-7.867zm17.389 13.894a13.494 13.494 0 0 1 5.909-1.994v-2.464c-2.444.863-4.517 2.427-5.909 4.458z" /><path  d="M38.124 18.245c1.437-2.651 3.93-4.696 6.964-5.716V5.431s-13.245 4.58-12.965 11.205v11.203s.59-.205 1.519-.589c0-.358 0-.719.043-1.083.274-3.075 1.87-5.925 4.439-7.924z" /><path  d="M36.864 22.407c.069-.777.225-1.546.463-2.294-1.599 1.725-2.568 3.867-2.769 6.122-.02.213-.03.426-.036.645a36.805 36.805 0 0 0 2.761-1.334l-.214.105a10.624 10.624 0 0 1-.206-3.244zm.527.04a10.167 10.167 0 0 0 .175 3.003l-.012-.066c3.619-1.983 7.685-5.046 7.528-8.748v-.323c-2.586.265-5.004 1.3-6.885 2.946a10.02 10.02 0 0 0-.804 3.148l-.003.04z" /></symbol><symbol id="icon-logo6" viewBox="0 0 57 32"><path  d="M28.493 14.618a1.563 1.563 0 0 1-.322-1.065v.005-1.538c0-.471.107-.829.321-1.075.213-.245.581-.367 1.101-.366.489 0 .837.105 1.042.313.224.266.333.591.308.919v.362h-.875v-.366a1.799 1.799 0 0 0-.026-.358.34.34 0 0 0-.125-.212l-.001-.001a.499.499 0 0 0-.279-.084l-.039.001h.002l-.038-.001a.53.53 0 0 0-.297.09l.002-.001a.415.415 0 0 0-.145.232v.003a1.74 1.74 0 0 0-.035.351v.031-.002 1.866c-.014.18.025.36.112.524.045.056.104.1.172.126l.003.001a.48.48 0 0 0 .228.029H29.6a.47.47 0 0 0 .311-.086l-.002.001a.37.37 0 0 0 .13-.224v-.002c.02-.124.03-.249.027-.374v-.379h.875v.346a1.397 1.397 0 0 1-.305.969l.002-.003c-.201.228-.544.342-1.047.342s-.884-.122-1.1-.375zm3.644.016c-.221-.24-.332-.588-.332-1.05v-1.618c0-.457.11-.803.332-1.037s.59-.351 1.109-.35c.515 0 .882.117 1.103.35.221.235.333.58.333 1.037v1.617c0 .457-.112.807-.337 1.049s-.59.361-1.1.361-.886-.122-1.109-.359zm1.516-.389a.902.902 0 0 0 .105-.478v-1.981a.872.872 0 0 0-.105-.474l.002.005a.425.425 0 0 0-.176-.128l-.003-.001a.473.473 0 0 0-.233-.027h.002a.49.49 0 0 0-.235.028l.003-.001a.416.416 0 0 0-.179.128l-.001.001a.855.855 0 0 0-.105.469v1.99a.888.888 0 0 0 .105.479.605.605 0 0 0 .639.116l-.004.001a.563.563 0 0 0 .185-.118v-.01zm2.082-3.619h.942l.708 2.984.725-2.984h.916l.093 4.307h-.678l-.073-2.994-.699 2.994h-.544l-.724-3.005-.067 3.005h-.685l.085-4.307zm4.441 0h1.468c.845 0 1.268.407 1.268 1.223 0 .781-.445 1.171-1.335 1.17h-.5v1.914h-.906l.005-4.308zm1.254 1.841a.707.707 0 0 0 .498-.136.699.699 0 0 0 .131-.486 1.325 1.325 0 0 0-.046-.4l.002.009a.317.317 0 0 0-.067-.119.386.386 0 0 0-.112-.085l-.002-.001a.913.913 0 0 0-.357-.071l-.05.001h.002-.351v1.287h.352zm2.789-1.841h.973l.998 4.307h-.845l-.197-.993h-.868l-.203.993h-.857l.998-4.307zm.831 2.816-.339-1.808-.339 1.808h.677zm1.946-2.816h.635l1.213 2.457v-2.457h.752v4.307h-.603l-1.221-2.565v2.565h-.777l.002-4.307zm4.361 2.665-1.009-2.659h.85l.616 1.708.578-1.708h.832l-.997 2.659v1.642h-.869V13.29zm-21.465 3.526v.225h-.739v1.75h-.31v-1.75H28.1v-.225h1.792zm2.318 1.976h-.246a.105.105 0 0 1-.061-.019.1.1 0 0 1-.039-.045v-.001l-.214-.469h-1.026l-.213.469a.126.126 0 0 1-.033.053.108.108 0 0 1-.062.019h-.245l.906-1.975h.315l.917 1.968zm-1.501-.734h.855l-.363-.804a1.278 1.278 0 0 1-.064-.176l-.003-.01-.034.105-.033.083-.358.803zm3.062.539a1.018 1.018 0 0 0 .316-.023 1.018 1.018 0 0 0 .252-.085v-.444h-.365a.076.076 0 0 1-.046-.016c-.006-.004-.01-.01-.014-.016a.034.034 0 0 1-.004-.018v-.153h.703v.757c-.11.068-.237.123-.372.158l-.01.002c-.075.019-.15.033-.227.041a2.598 2.598 0 0 1-.265.012h-.011c-.159 0-.312-.027-.455-.077l.01.003a1.123 1.123 0 0 1-.364-.208l.002.001a.952.952 0 0 1-.231-.307l-.002-.006a.965.965 0 0 1-.083-.397v-.013.001-.012c0-.145.03-.283.084-.407l-.003.007a.907.907 0 0 1 .234-.313c.103-.089.227-.158.363-.205.155-.051.32-.076.485-.074.084 0 .169.005.252.017.074.011.146.027.215.05.064.02.124.047.181.078.055.031.108.065.158.103l-.087.122a.073.073 0 0 1-.029.026.093.093 0 0 1-.042.011.111.111 0 0 1-.057-.016h.001a.892.892 0 0 1-.094-.05l.005.003a.814.814 0 0 0-.115-.052l-.006-.002a1.027 1.027 0 0 0-.16-.043l-.007-.001a1.34 1.34 0 0 0-.218-.017h-.013.001-.011c-.121 0-.238.02-.346.057l.008-.002a.774.774 0 0 0-.267.156.672.672 0 0 0-.166.241l-.002.005a.917.917 0 0 0 .002.665l-.002-.006a.76.76 0 0 0 .445.405c.115.034.237.047.359.039zm2.888-.031h.989v.225h-1.291v-1.975h.309l-.007 1.75zm2.018.226h-.309v-1.975h.309v1.975zm1.153-1.966a.14.14 0 0 1 .047.036l1.324 1.489-.001-.035.001-.037v.002-1.472h.27v1.984h-.166a.14.14 0 0 1-.058-.012h.001a.162.162 0 0 1-.048-.037l-1.323-1.488v1.536h-.259v-1.975h.161c.018 0 .035.003.051.009zm3.923-.01v.217h-1.098v.652h.89v.21h-.89v.674h1.098v.218h-1.417v-1.971h1.417zm-32.467-12.2 13.757 3.372v11.818l-13.757-3.371V4.616zm-.882-1.008V17.01l15.52 3.806V7.417L10.404 3.61z" /><path  d="M18.722 27.036 3.2 23.227V9.828l15.522 3.807v13.401z" /><path  d="m10.661 4.465 13.578 3.33-5.774 4.987L4.886 9.45l5.776-4.986zm-.257-.856L3.2 9.828l15.522 3.808 7.202-6.22-15.52-3.807zm9.191 22.673 6.329-5.466-6.33-1.552v7.019z" /></symbol><symbol id="icon-smartphone" viewBox="0 0 20 32"><path  d="M17 0H3C1.346 0 0 1.346 0 3v26c0 1.654 1.346 3 3 3h14c1.654 0 3-1.346 3-3V3c0-1.654-1.346-3-3-3zM3 2h14a1 1 0 0 1 1 1v21H2V3a1 1 0 0 1 1-1zm14 28H3a1 1 0 0 1-1-1v-3h16v3a1 1 0 0 1-1 1z" /><path  d="M4.708 27.478a.889.889 0 0 1 .001 1.319l-.001.001a1.048 1.048 0 0 1-1.417 0l.001.001a.889.889 0 0 1-.001-1.319l.001-.001a1.048 1.048 0 0 1 1.417 0l-.001-.001z" /></symbol><symbol id="icon-twitter" viewBox="0 0 32 32"><path  d="M32 6.078c-1.1.493-2.376.857-3.713 1.028l-.068.007a6.556 6.556 0 0 0 2.873-3.579l.013-.046a12.89 12.89 0 0 1-4.076 1.573l-.084.014A6.558 6.558 0 0 0 15.6 9.557v.004c0 .52.043 1.021.152 1.496-5.454-.266-10.28-2.88-13.522-6.861a6.524 6.524 0 0 0-.902 3.313v.001a6.57 6.57 0 0 0 2.914 5.451 6.453 6.453 0 0 1-2.994-.823l.033.017v.072a6.592 6.592 0 0 0 5.213 6.44l.043.008a6.403 6.403 0 0 1-1.662.215h-.061.003c-.419 0-.843-.024-1.242-.112.85 2.598 3.261 4.509 6.13 4.57a13.096 13.096 0 0 1-8.123 2.8H1.57h.001c-.538 0-1.053-.026-1.57-.091 2.827 1.846 6.287 2.944 10.004 2.944h.063-.003c12.072 0 18.672-10 18.672-18.669 0-.288-.01-.57-.024-.848a13.19 13.19 0 0 0 3.258-3.356l.03-.047z" /></symbol><symbol id="icon-blogger" viewBox="0 0 32 32"><path d="M29.931 12h-1.794c-1.099 0-2.062-.929-2.137-2 0-5.708-4.602-10-10.35-10h-5.245C4.661 0 .003 4.625-.001 10.333V21.67c0 5.708 4.662 10.329 10.406 10.329h11.201C27.354 31.999 32 27.378 32 21.67v-7.324C32 13.205 31.08 12 29.931 12zM10 8h6c1.1 0 2 .9 2 2s-.9 2-2 2h-6c-1.1 0-2-.9-2-2s.9-2 2-2zm12 16H10c-1.1 0-2-.9-2-2s.9-2 2-2h12c1.1 0 2 .9 2 2s-.9 2-2 2z"/></symbol><symbol id="icon-blogger2" viewBox="0 0 32 32"><path d="M29 0H3C1.35 0 0 1.35 0 3v26c0 1.65 1.35 3 3 3h26c1.65 0 3-1.35 3-3V3c0-1.65-1.35-3-3-3zm-1 20.25c0 4.281-3.481 7.75-7.794 7.75h-8.4C7.493 28 4 24.531 4 20.25v-8.5C4 7.469 7.494 4 11.806 4h3.931c4.313 0 7.762 3.219 7.762 7.5.056.8.781 1.5 1.6 1.5h1.344c.863 0 1.55.906 1.55 1.762v5.488z"/><path d="M22 20c0 1.1-.9 2-2 2h-8c-1.1 0-2-.9-2-2s.9-2 2-2h8c1.1 0 2 .9 2 2zM18 12c0 1.1-.9 2-2 2h-4c-1.1 0-2-.9-2-2s.9-2 2-2h4c1.1 0 2 .9 2 2z"/></symbol><symbol id="icon-hover-header-line" viewBox="0 0 624 32"><path d="M16 0h592c8.837 0 16 7.163 16 16s-7.163 16-16 16H16C7.163 32 0 24.837 0 16S7.163 0 16 0z" style="fill:var(--color1, #2196f3)"/></symbol><symbol id="icon-send" viewBox="0 0 32 32"><path  d="M32 0 0 18l10.227 3.787L26 7 14.003 23.187l.009.003-.012-.003V32l5.735-6.691L27.002 28l4.999-28z" /></symbol><symbol id="icon-modal-done" viewBox="0 0 42 32"><path fill="#fff" stroke="#fff" stroke-width=".64" d="m6.262 15.206-.221-.211-.221.208-3.085 2.925.243.234 11.408 10.88.221-.211L38.863 5.892l-.243-.23-3.043-2.902-.221.211-20.97 19.987-8.125-7.75z" style="fill:var(--color2, #fff);stroke:var(--color2, #fff)"/></symbol><symbol id="icon-modal-face" viewBox="0 0 32 32"><path d="M16 16a8 8 0 0 0 0-16 8 8 0 0 0 0 16zm0 4c-5.339 0-16 2.68-16 8v2c0 1.099.901 2 2 2h28c1.099 0 2-.901 2-2v-2c0-5.32-10.661-8-16-8z"/></symbol><symbol id="icon-modal-mail" viewBox="0 0 43 32"><path d="M37.333 0h-32c-2.2 0-3.981 1.8-3.981 4l-.019 24c0 2.2 1.8 4 4 4h32c2.2 0 4-1.8 4-4V4c0-2.2-1.8-4-4-4zm-.8 8.501-14.139 8.837a2.02 2.02 0 0 1-2.129-.005l.009.005-14.141-8.84A1.7 1.7 0 1 1 7.94 5.621l-.006-.004 13.4 8.381 13.4-8.381a1.7 1.7 0 1 1 1.808 2.876l-.008.004z"/></symbol><symbol id="icon-modal-phone" viewBox="0 0 32 32"><path d="m27.419 20.853-4.201-.48a3.28 3.28 0 0 0-2.713.941l-3.045 3.045c-4.718-2.435-8.467-6.185-10.835-10.764l-.065-.139L9.623 10.4a3.281 3.281 0 0 0 .94-2.729l.002.016-.48-4.169A3.314 3.314 0 0 0 6.798.592H3.933C2.063.587.509 2.142.623 4.009c.878 14.126 12.176 25.408 26.286 26.286 1.867.114 3.424-1.44 3.424-3.31v-2.878a3.279 3.279 0 0 0-2.897-3.256l-.015-.001z"/></symbol><symbol id="icon-modal-square" viewBox="0 0 34 32"><path d="M30.34 3.556v24.887H3.793V3.556H30.34zm0-3.556H3.793C1.707 0 0 1.6 0 3.556v24.887c0 1.956 1.707 3.556 3.793 3.556H30.34c2.086 0 3.793-1.6 3.793-3.556V3.556C34.133 1.6 32.426 0 30.34 0z"/></symbol><symbol id="icon-modal-x" viewBox="0 0 32 32"><path d="M32 3.223 28.777 0 16 12.777 3.223 0 0 3.223 12.777 16 0 28.777 3.223 32 16 19.223 28.777 32 32 28.777 19.223 16 32 3.223z"/></symbol><symbol id="icon-check" viewBox="0 0 34 32"><path fill="#2196f3" d="M4.267 0h25.6a4.267 4.267 0 0 1 4.267 4.267v23.467a4.267 4.267 0 0 1-4.267 4.267h-25.6A4.267 4.267 0 0 1 0 27.734V4.267A4.267 4.267 0 0 1 4.267 0z" style="fill:var(--color1, #2196f3)"/><path fill="#fff" stroke="#fff" stroke-width=".427" d="m8.442 16.538-.147-.141-.147.139-2.057 1.95.162.156 7.605 7.253.147-.141 16.171-15.426-.162-.154-2.029-1.935-.147.141-13.98 13.325-5.417-5.167z" style="fill:var(--color2, #fff);stroke:var(--color2, #fff)"/></symbol><symbol id="icon-home" viewBox="0 0 32 32"><path d="M32 18.451 16 6.031 0 18.451v-5.064L16 .967l16 12.42zM28 18v12h-8v-8h-8v8H4V18l12-9z"/></symbol><symbol id="icon-home2" viewBox="0 0 32 32"><path d="M16 1 0 17l3 3 3-3v13h8v-6h4v6h8V17l3 3 3-3L16 1zm0 13a2 2 0 1 1-.001-3.999A2 2 0 0 1 16 14z"/></symbol><symbol id="icon-home3" viewBox="0 0 32 32"><path d="m32 19-6-6V4h-4v5l-6-6L0 19v1h4v10h10v-6h4v6h10V20h4z"/></symbol><symbol id="icon-office" viewBox="0 0 32 32"><path d="M0 32h16V0H0v32zM10 4h4v4h-4V4zm0 8h4v4h-4v-4zm0 8h4v4h-4v-4zM2 4h4v4H2V4zm0 8h4v4H2v-4zm0 8h4v4H2v-4zm16-10h14v2H18zm0 22h4v-8h6v8h4V14H18z"/></symbol><symbol id="icon-newspaper" viewBox="0 0 32 32"><path d="M28 8V4H0v22a2 2 0 0 0 2 2h27a3 3 0 0 0 3-3V8h-4zm-2 18H2V6h24v20zM4 10h20v2H4zm12 4h8v2h-8zm0 4h8v2h-8zm0 4h6v2h-6zM4 14h10v10H4z"/></symbol><symbol id="icon-check-white" viewBox="0 0 34 32"><path fill="#fff" style="fill: var(--color1, #fff); stroke: var(--color1, #fff)" stroke="#fff" stroke-linejoin="miter" stroke-linecap="butt" stroke-miterlimit="4" stroke-width="0.4267" d="M8.442 16.538l-0.147-0.141-0.147 0.139-2.057 1.95 0.162 0.156 7.605 7.253 0.147-0.141 16.171-15.426-0.162-0.154-2.029-1.935-0.147 0.141-13.98 13.325-5.417-5.167z"></path></symbol><symbol id="menu-close" viewBox="0 0 32 32"><path d="M23.734 10.304l-1.504-1.504-5.963 5.962-5.962-5.962-1.504 1.504 5.962 5.962-5.962 5.963 1.504 1.504 5.962-5.963 5.963 5.963 1.504-1.504-5.963-5.963 5.963-5.962z"></path></symbol><symbol id="menu-open" viewBox="0 0 32 32"><path d="M6.4 11.734v-2.134h19.2v2.134h-19.2zM6.4 17.066h19.2v-2.133h-19.2v2.133zM6.4 22.4h19.2v-2.134h-19.2v2.134z"></path></symbol></defs></svg>